# xmcd CD database file
#
# Track frame offsets:
#	150
#	19802
#	48067
#	62233
#	88027
#	118999
#	128130
#	160319
#	188862
#	198853
#
# Disc length: 2992 seconds
#
# Revision: 1
# Processed by: cddbd v1.5.2PL0 Copyright (c) Steve Scherf et al.
# Submitted via: CDex 1.51
#
DISCID=860bae0a
DTITLE=Kitaro - Celestial Scenery 09-Galactic Flight
DYEAR=2011
DGENRE=New Age
TTITLE0=Estrella
TTITLE1=Milky Way
TTITLE2=Magical Wave
TTITLE3=Message From The Cosmos
TTITLE4=Solar System Trapeze
TTITLE5=Planet (live)
TTITLE6=Moon-Star
TTITLE7=Sundance
TTITLE8=Del Mar
TTITLE9=Cosmic Love (live)
EXTD=YEAR: 2011
EXTT0=
EXTT1=
EXTT2=
EXTT3=
EXTT4=
EXTT5=
EXTT6=
EXTT7=
EXTT8=
EXTT9=
PLAYORDER=
